<svg width="24" height="26" viewBox="0 0 24 26" fill="none" xmlns="http://www.w3.org/2000/svg">
<path fill-rule="evenodd" clip-rule="evenodd" d="M22.6667 7.16041H1.33333V11.1604H22.6667V7.16041ZM0 5.82707V12.4937H24V5.82707H0Z" fill="#E93CAC"/>
<path fill-rule="evenodd" clip-rule="evenodd" d="M13.333 7.16041H10.6663V24.4937H13.333V7.16041ZM9.33301 5.82707V25.8271H14.6663V5.82707H9.33301Z" fill="#E93CAC"/>
<path fill-rule="evenodd" clip-rule="evenodd" d="M21.333 12.4937H2.66634V24.4937H21.333V12.4937ZM1.33301 11.1604V25.8271H22.6663V11.1604H1.33301Z" fill="#E93CAC"/>
<path fill-rule="evenodd" clip-rule="evenodd" d="M8.74474 5.33348C8.29521 5.23154 8.00185 5.10564 7.85366 5.00463C6.95331 4.39095 6.88289 3.43895 7.21313 2.95445C7.54336 2.46994 8.45521 2.18746 9.35557 2.80114C9.50376 2.90214 9.72819 3.12917 9.98741 3.51031C10.2359 3.87567 10.4692 4.31271 10.6593 4.75132C10.775 5.01833 10.8683 5.27094 10.9376 5.49305C10.7055 5.50974 10.4363 5.51529 10.1455 5.50518C9.66772 5.48857 9.17565 5.43121 8.74474 5.33348ZM11.5853 5.39083C11.6058 5.38289 11.6006 5.38266 11.5782 5.39344C11.5811 5.39242 11.5835 5.39154 11.5853 5.39083ZM11.0791 6.12573C11.0772 6.1505 11.0794 6.15528 11.0793 6.13333C11.0793 6.13136 11.0792 6.12883 11.0791 6.12573ZM12.3445 6.45197C11.969 7.00285 8.47969 7.04493 7.10271 6.10638C5.72573 5.16784 5.2819 3.42045 6.11138 2.2035C6.94086 0.986539 8.72954 0.760843 10.1065 1.69939C11.4835 2.63794 12.7199 5.9011 12.3445 6.45197Z" fill="#E93CAC"/>
<path fill-rule="evenodd" clip-rule="evenodd" d="M15.768 5.33348C16.2175 5.23154 16.5108 5.10564 16.659 5.00463C17.5594 4.39095 17.6298 3.43895 17.2996 2.95445C16.9693 2.46994 16.0575 2.18746 15.1571 2.80114C15.0089 2.90214 14.7845 3.12917 14.5253 3.51031C14.2768 3.87567 14.0435 4.31271 13.8534 4.75132C13.7377 5.01833 13.6444 5.27094 13.5751 5.49305C13.8072 5.50974 14.0764 5.51529 14.3672 5.50518C14.845 5.48857 15.337 5.43121 15.768 5.33348ZM12.9273 5.39083C12.9069 5.38289 12.9121 5.38266 12.9345 5.39344C12.9316 5.39242 12.9292 5.39154 12.9273 5.39083ZM13.4336 6.12573C13.4355 6.1505 13.4333 6.15528 13.4334 6.13333C13.4334 6.13136 13.4335 6.12883 13.4336 6.12573ZM12.1682 6.45197C12.5437 7.00285 16.033 7.04493 17.41 6.10638C18.787 5.16784 19.2308 3.42045 18.4013 2.2035C17.5718 0.986539 15.7832 0.760843 14.4062 1.69939C13.0292 2.63794 11.7928 5.9011 12.1682 6.45197Z" fill="#E93CAC"/>
</svg>
